# xmcd
#
# Track frame offsets:
#	150
#	12540
#	27665
#	42169
#	56175
#	72667
#	85060
#	104800
#	118059
#	132948
#
# Disc length: 1982 seconds
#
# Revision: 0
# Processed by: cddbd v1.4PL0 Copyright (c) Steve Scherf et al.
# Submitted via: dBpowerAMP V4.0
#
DISCID=9807bc0a
DTITLE=Hank Wiliams Jr. - Born To Boogie
DYEAR=1900
DGENRE=Country
TTITLE0=Born To Boogie
TTITLE1=Honky Tonk Woman
TTITLE2=Young Country
TTITLE3=Keep Your Hands To Yourself
TTITLE4=Buck Naked
TTITLE5=Heaven Can't Be Found
TTITLE6=Thanks A Lot
TTITLE7=What It Boils Down To
TTITLE8=Shadow Face
TTITLE9=Practice What I Preach
EXTD=
EXTT0=
EXTT1=
EXTT2=
EXTT3=
EXTT4=
EXTT5=
EXTT6=
EXTT7=
EXTT8=
EXTT9=
PLAYORDER=
